<svg xmlns="http://www.w3.org/2000/svg" width="177" height="72" viewBox="0 0 177 72" version="1.1"><path d="M 54.494 21.233 C 53.326 23.898, 49.602 24.711, 47.195 22.827 C 45.671 21.634, 45.638 21.676, 46.872 23.250 C 48.795 25.702, 53.651 25.520, 55.030 22.945 C 55.635 21.814, 55.985 20.456, 55.809 19.928 C 55.633 19.399, 55.041 19.986, 54.494 21.233 M 39.272 25 C 39.272 27.475, 39.467 28.488, 39.706 27.250 C 39.944 26.012, 39.944 23.988, 39.706 22.750 C 39.467 21.512, 39.272 22.525, 39.272 25 M 14.500 24 C 14.116 24.621, 16.009 25, 19.500 25 C 22.991 25, 24.884 24.621, 24.500 24 C 24.160 23.450, 21.910 23, 19.500 23 C 17.090 23, 14.840 23.450, 14.500 24 M 14.480 29.032 C 14.276 29.362, 16.110 29.735, 18.555 29.862 C 21 29.989, 23 29.894, 23 29.651 C 23 28.954, 14.892 28.365, 14.480 29.032 M 44.136 32.250 C 44.026 34.480, 43.528 35, 41.500 35 C 39.129 35, 39.009 35.270, 39.175 40.250 C 39.342 45.269, 39.366 45.313, 39.732 41.250 C 40.042 37.815, 40.493 37, 42.089 37 C 44.384 37, 45.342 35.111, 44.715 31.823 C 44.318 29.741, 44.258 29.786, 44.136 32.250 M 114.218 43.673 C 114.009 57.248, 113.892 57.974, 111.453 60.874 C 106.952 66.222, 94.706 66.699, 89.059 61.744 L 86.500 59.500 88.897 62.221 C 95.345 69.540, 110.375 67.751, 113.898 59.245 C 114.646 57.441, 114.950 51.628, 114.749 42.969 L 114.437 29.500 114.218 43.673 M 126.667 34.667 C 125.320 36.013, 126.048 37.205, 127.487 36.011 C 128.361 35.285, 130.044 35.045, 131.571 35.428 C 133.256 35.851, 133.942 35.715, 133.525 35.040 C 132.814 33.891, 127.720 33.613, 126.667 34.667 M 152.872 35.664 C 151.622 37.179, 151.710 37.216, 153.852 36.074 C 155.146 35.384, 157.059 35.044, 158.104 35.317 C 159.148 35.590, 159.751 35.405, 159.442 34.907 C 158.514 33.405, 154.339 33.886, 152.872 35.664 M 17.750 35.723 C 19.538 35.945, 22.462 35.945, 24.250 35.723 C 26.038 35.502, 24.575 35.320, 21 35.320 C 17.425 35.320, 15.962 35.502, 17.750 35.723 M 68.571 36.571 C 67.427 37.716, 67 40.146, 67 45.514 L 67 52.885 62.750 53.268 L 58.500 53.651 63.210 53.825 L 67.919 54 68.210 45.855 C 68.440 39.400, 68.862 37.483, 70.247 36.613 C 71.558 35.788, 72.555 35.865, 74.247 36.918 C 76.310 38.203, 76.384 38.181, 75.128 36.661 C 73.400 34.570, 70.611 34.532, 68.571 36.571 M 97 37 C 95.900 38.100, 95.007 39.788, 95.015 40.750 C 95.026 42.034, 95.369 41.835, 96.306 40 C 97.322 38.008, 98.340 37.500, 101.311 37.500 C 104.540 37.500, 104.811 37.332, 103.329 36.250 C 100.928 34.496, 99.312 34.688, 97 37 M 84 45.443 L 84 52.885 79.750 53.268 L 75.500 53.651 80.250 53.825 L 85 54 85 46 C 85 41.600, 84.775 38, 84.500 38 C 84.225 38, 84 41.349, 84 45.443 M 169 40 C 169 41.843, 168.333 42, 160.500 42 C 155.825 42, 151.999 42.337, 151.998 42.750 C 151.996 43.163, 156.046 43.356, 160.998 43.179 C 169.775 42.866, 170 42.797, 170 40.429 C 170 39.093, 169.775 38, 169.500 38 C 169.225 38, 169 38.900, 169 40 M 14.500 41 C 12.592 41.820, 12.603 41.863, 14.750 41.930 C 15.988 41.968, 17 41.550, 17 41 C 17 40.450, 16.887 40.032, 16.750 40.070 C 16.613 40.109, 15.600 40.527, 14.500 41 M 18.660 41.250 C 18.912 41.663, 21.368 42, 24.118 42 C 27.282 42, 28.885 41.623, 28.484 40.974 C 28.135 40.409, 25.679 40.072, 23.025 40.224 C 20.372 40.376, 18.408 40.837, 18.660 41.250 M 129.250 42.735 C 131.863 42.941, 136.137 42.941, 138.750 42.735 C 141.363 42.529, 139.225 42.360, 134 42.360 C 128.775 42.360, 126.638 42.529, 129.250 42.735 M 18 46 C 16.718 46.828, 16.754 46.972, 18.250 46.985 C 19.212 46.993, 20 46.550, 20 46 C 20 44.780, 19.887 44.780, 18 46 M 21.500 47 C 21.840 47.550, 24.116 48, 26.559 48 C 29.002 48, 31 47.550, 31 47 C 31 46.450, 28.723 46, 25.941 46 C 22.823 46, 21.119 46.384, 21.500 47 M 147.169 50.313 C 151.847 54.859, 156.520 55.837, 162.555 53.532 C 165.012 52.594, 167.481 50.969, 168.041 49.923 C 168.905 48.309, 168.502 48.398, 165.390 50.510 C 159.809 54.298, 152.322 54.034, 147.285 49.873 L 143.500 46.746 147.169 50.313 M 119.935 50.396 C 122.891 53.585, 128.778 55.320, 133.586 54.418 C 137.027 53.772, 143.601 49.267, 142.584 48.251 C 142.309 47.976, 140.681 48.932, 138.966 50.376 C 134.570 54.074, 126.882 54.078, 121.390 50.384 L 117.500 47.769 119.935 50.396 M 89.830 51.294 C 91.789 53.655, 97.643 55.290, 101.530 54.560 C 107.007 53.533, 106.376 52.304, 100.617 52.782 C 96.829 53.096, 94.358 52.719, 91.914 51.456 C 88.996 49.948, 88.693 49.924, 89.830 51.294 M 33.237 52.584 C 34.367 53.767, 36.287 54.362, 38.737 54.288 C 40.806 54.226, 45.404 54.152, 48.953 54.124 C 52.502 54.096, 55.133 53.799, 54.798 53.465 C 54.464 53.131, 50.008 52.857, 44.896 52.857 C 39.784 52.857, 34.679 52.387, 33.551 51.812 C 31.593 50.814, 31.579 50.849, 33.237 52.584" stroke="none" fill="#b82334" fill-rule="evenodd"/><path d="M 47 16 C 44.517 18.483, 44.470 20.211, 46.829 22.345 C 48.995 24.305, 52.366 24.503, 53.722 22.750 C 55.846 20.005, 55.924 17.924, 53.977 15.977 C 51.469 13.469, 49.525 13.475, 47 16 M 6.394 21.172 C 5.354 22.854, 8.606 25.376, 10.672 24.491 C 13.226 23.397, 21.814 22.715, 23.737 23.453 C 27.661 24.959, 22.654 26.144, 12.626 26.083 C 2.661 26.022, 2 26.141, 2 28.009 C 2 29.774, 2.675 30, 7.941 30 C 11.209 30, 14.100 29.647, 14.366 29.216 C 15.021 28.156, 23 28.977, 23 30.105 C 23 30.597, 21.762 31.005, 20.250 31.011 C 14.142 31.035, 9.900 32.241, 10.212 33.864 C 10.468 35.192, 11.866 35.400, 18.759 35.139 C 24.216 34.932, 27 35.194, 27 35.913 C 27 37.027, 21.967 37.401, 11.889 37.035 C 7.671 36.883, 6.135 37.207, 5.699 38.343 C 4.743 40.833, 7.590 42.340, 11.758 41.550 C 18.737 40.227, 27.860 39.964, 28.541 41.066 C 29.619 42.810, 28.582 43.104, 21.113 43.174 C 14.694 43.235, 14 43.436, 14 45.237 C 14 46.660, 14.503 47.091, 15.750 46.739 C 19.052 45.805, 19.513 45.763, 25.250 45.882 C 30.237 45.984, 31 46.258, 31 47.943 C 31 50.770, 34.821 53, 39.663 53 C 44.576 53, 45.193 52.368, 44.137 48.418 C 43.619 46.481, 42.713 45.506, 41.429 45.504 C 39.808 45.501, 39.452 44.663, 39.198 40.250 C 38.908 35.209, 38.997 35, 41.448 35 C 43.617 35, 44 34.550, 44 32 C 44 29.467, 43.611 29, 41.500 29 C 39.202 29, 39 28.635, 39 24.477 L 39 19.954 23.012 20.053 C 13.334 20.113, 6.775 20.555, 6.394 21.172 M 69.057 29.673 C 67.743 30.593, 66.994 30.818, 67.393 30.173 C 67.907 29.341, 66.792 29, 63.559 29 L 59 29 59 41 L 59 53 63 53 L 67 53 67 45.571 C 67 37.786, 68.284 35, 71.871 35 C 75.112 35, 76 37.194, 76 45.200 L 76 53 79.897 53 L 83.795 53 84.212 44.250 C 84.720 33.577, 84.007 31.319, 79.538 29.452 C 74.997 27.554, 71.991 27.617, 69.057 29.673 M 93.030 29.234 C 89.504 31.083, 86 36.739, 86 40.583 C 86 49.054, 91.016 53.334, 100.250 52.741 C 103.412 52.538, 106 52.638, 106 52.964 C 106 53.289, 105.299 54.555, 104.443 55.777 C 102.652 58.335, 98.385 58.733, 95.486 56.614 C 93.859 55.424, 93.124 55.450, 90.295 56.799 C 86.377 58.668, 86.311 59.004, 89.309 61.820 C 94.214 66.428, 106.594 66.186, 111.104 61.394 C 113.356 59, 113.530 57.950, 114 43.872 L 114.500 28.897 109 28.961 C 105.975 28.996, 101.700 28.781, 99.500 28.482 C 97.121 28.160, 94.499 28.465, 93.030 29.234 M 124.500 28.954 C 119.441 31.047, 115.478 38.277, 116.570 43.424 C 117.860 49.503, 123.106 53, 130.935 53 C 135.065 53, 136.545 52.485, 139.183 50.128 L 142.397 47.256 139.201 45.604 C 136.300 44.104, 135.786 44.094, 133.637 45.502 C 130.930 47.276, 126.695 46.253, 125.668 43.577 C 125.145 42.213, 126.276 42, 134.031 42 C 142.149 42, 143 42.179, 143 43.884 C 143 44.920, 144.801 47.395, 147.003 49.384 C 150.488 52.532, 151.658 53, 156.053 53 C 161.175 53, 165.631 51.355, 167.894 48.628 C 168.937 47.371, 168.654 46.873, 166.171 45.589 C 163.495 44.205, 162.891 44.207, 160.065 45.618 C 157.207 47.043, 156.708 47.039, 154.464 45.568 C 150.248 42.806, 151.612 42, 160.500 42 C 168.944 42, 169 41.983, 169 39.450 C 169 33.423, 163.080 28, 156.500 28 C 152.457 28, 146.898 31.013, 145.096 34.181 C 143.133 37.632, 142.628 37.673, 141.181 34.498 C 138.852 29.387, 130.314 26.549, 124.500 28.954 M 46 41 L 46 53 50.500 53 L 55 53 55 41 L 55 29 50.500 29 L 46 29 46 41 M 126.714 34.619 C 125.113 36.220, 126.217 37, 130.083 37 C 132.902 37, 134.040 36.613, 133.756 35.750 C 133.302 34.367, 127.843 33.491, 126.714 34.619 M 153.042 35.449 C 151.914 36.808, 152.275 37, 155.961 37 C 158.878 37, 160.041 36.617, 159.756 35.750 C 159.143 33.881, 154.515 33.674, 153.042 35.449 M 97 37 C 95.900 38.100, 95 39.575, 95 40.277 C 95 42.697, 98.118 46, 100.402 46 C 103.009 46, 106 43.153, 106 40.671 C 106 38.593, 102.515 35, 100.500 35 C 99.675 35, 98.100 35.900, 97 37" stroke="none" fill="#e32b43" fill-rule="evenodd"/></svg>